<?xml version="1.0" encoding="UTF-8"?>
<svg width="24px" height="24px" viewBox="0 0 24 24" version="1.1" xmlns="http://www.w3.org/2000/svg" xmlns:xlink="http://www.w3.org/1999/xlink">
    <!-- Generator: Sketch 59 (86127) - https://sketch.com -->
    <title>Icon/Copy</title>
    <desc>Created with Sketch.</desc>
    <g id="Icon/Copy" stroke="none" stroke-width="1" fill="none" fill-rule="evenodd" fill-opacity="0.54">
        <path d="M16,1 L4,1 C2.9,1 2,1.9 2,3 L2,17 L4,17 L4,3 L16,3 L16,1 Z M15,5 L8,5 C6.9,5 6.01,5.9 6.01,7 L6,21 C6,22.1 6.89,23 7.99,23 L19,23 C20.1,23 21,22.1 21,21 L21,11 L15,5 Z M8,21 L8,7 L14,7 L14,12 L19,12 L19,21 L8,21 Z" id="形状" fill="#BD10E0" fill-rule="nonzero"></path>
    </g>
</svg>